/* XPM */
static char *result[] = {
/* columns rows colors chars-per-pixel */
"27 27 11 1 ",
"  c #D1E403",
". c #D1E503",
"X c #D1E602",
"o c #D2E602",
"O c #D3E602",
"+ c #D2E702",
"@ c #D2E603",
"# c #D3E603",
"$ c #D3E703",
"% c #D1E504",
"& c None",
/* pixels */
"&&&&&&&&&&&&&&&&&&&&&&&&&&&",
"&&&&&&&&&&&&&&&&&&&&&&&&&&&",
"&&&&&&&&&&&&&&&&&&&&&&&&&&&",
"&&&&&&&&&&&&&&&&&&&&&&&&&&&",
"&&&&&&&&&&&&&&&&&&&&&&&&&&&",
"&&&&&&&&&&&&&&&&&&&&&&&&&&&",
"&@@@@@@o&&&@@&&o@@@@@&&&&&&",
"$@o####&&&@@X&&&###X@@&&&&&",
"@@&&&&&&&%@@&&&&&&&&@@&&&&&",
"@@&&&&&&&@@&&&&&&&&&@@&&&&&",
"@@&&&&&&@@X&&&&&&&&&@@&&&&&",
"@@&&&&&%@@&&&&&&&&&&@@&& @&",
"@@&&&&&@@@++++X&&&&&@@&&$@&",
"@@&&&&&@@@@@@@@&&&&&@@&&$@&",
"@@&&&&&&&&&&@@@&&&&&@@&&@@&",
"@@&&&&&&&&&%@o&&&&&&@@&&&&&",
"@@&&&&&&&&&@@&&&&&&&@@&&&&&",
"@@&&&&&&&&@@@&&&&&&&@@&&&&&",
"+@@&&&&&&%@o&&&&&&&.@X&&&&&",
"&@@@@@&&&@@&&&O@@@@@@&&&&&&",
"&&Xooo&&&X@&&&ooooo@&&&&&&&",
"&&&&&&&&&&&&&&&&&&&&&&&&&&&",
"&&&&&&&&&&&&&&&&&&&&&&&&&&&",
"&&&&&&&&&&&&&&&&&&&&&&&&&&&",
"&&&&&&&&&&&&&&&&&&&&&&&&&&&",
"&&&&&&&&&&&&&&&&&&&&&&&&&&&",
"&&&&&&&&&&&&&&&&&&&&&&&&&&&"
};
