/* XPM */
static char *result[] = {
/* columns rows colors chars-per-pixel */
"27 28 9 1 ",
"  c #D1E403",
". c #D1E503",
"X c #D1E602",
"o c #D2E602",
"O c #D2E702",
"+ c #D2E603",
"@ c #D3E603",
"# c #D3E703",
"$ c None",
/* pixels */
"$$$$$$$$$$$$$$$$$$$$$$$$$$$",
"$$$$$$$$$$$$$$$$$$$$$$$$$$$",
"$$$$$$$$$$$$$$$$$$$$$$$$$$$",
"$$$$$$$$$$$$$$$$$$$$$$$$$$$",
"$$$$$$$$$$$$$$$$$$$$$$$$$$$",
"$$$$$$$$$$$$$$$$$$$$$$$$$$$",
"$++++++++++++++++++++$$$$$$",
"#+o@@@@@@@@@@@@@@@@X++$$$$$",
"++$$$$$$$$$$$$$$$$$$++$$$$$",
"++$$$$$$$$$$$$$$$$$$++$$$$$",
"++$$$$$$$$$$$$$$$$$$++$$$$$",
"++$$$$$$$$$$$$$$$$$$++$$ +$",
"++$$$$$$$$$$$$$$$$$$++$$#+$",
"++$$$$$$$$$$$$$$$$$$++$$#+$",
"++$$$$$$$$$$$$$$$$$$++$$++$",
"++$$$$$$$$$$$$$$$$$$++$$$$$",
"++$$$$$$$$$$$$$$$$$$++$$$$$",
"++$$$$$$$$$$$$$$$$$$++$$$$$",
"O++$$$$$$$$$$$$$$$$.+X$$$$$",
"$++++++++++++++++++++$$$$$$",
"$$Xoooooooooooooooo+$$$$$$$",
"$$$$$$$$$$$$$$$$$$$$$$$$$$$",
"$$$$$$$$$$$$$$$$$$$$$$$$$$$",
"$$$$$$$$$$$$$$$$$$$$$$$$$$$",
"$$$$$$$$$$$$$$$$$$$$$$$$$$$",
"$$$$$$$$$$$$$$$$$$$$$$$$$$$",
"$$$$$$$$$$$$$$$$$$$$$$$$$$$",
"$$$$$$$$$$$$$$$$$$$$$$$$$$$"
};
