/* XPM */
static char *result[] = {
/* columns rows colors chars-per-pixel */
"28 28 16 1 ",
"  c #CFE504",
". c #D2E601",
"X c #D1E502",
"o c #D1E403",
"O c #D1E503",
"+ c #D2E503",
"@ c #D1E602",
"# c #D2E602",
"$ c #D2E702",
"% c #D2E603",
"& c #D3E603",
"* c #D2E703",
"= c #D3E703",
"- c #D1E504",
"; c #D2E604",
": c None",
/* pixels */
"::::::::::::::::::::::::::::",
"::::::::::::::::::::::::::::",
":::::::::::::*::::::::::::::",
"::::::::::::$%::::::::::::::",
"::::::::::::::::::::::::::::",
":::::o@::::::::::::o@:::::::",
":::::@%::::::::::::@%:::::::",
"::::::::::=%%%%% :::::::::::",
"::::::::-%%%#@%%%X::::::::::",
"::::::::%%%:::::%%%:::::::::",
":::::::%%.:::::::%%:::::::::",
":::::::%%::::::::&%#::::::::",
"::-@:::%@:::::::::%%::O@::::",
"::%%:::%@:::::::::%%::%%::::",
":::::::%+::::::::*%%::::::::",
":::::::%%::::::::%%:::::::::",
"::::::::%%::::::%%@:::::::::",
"::::::::@%%*::;%%#::::::::::",
":::::::::$%%%%%%@:::::::::::",
":::::o@::::#&&+::::o@:::::::",
":::::@%::::::::::::@%:::::::",
"::::::::::::::::::::::::::::",
"::::::::::::o%::::::::::::::",
"::::::::::::&%::::::::::::::",
"::::::::::::::::::::::::::::",
"::::::::::::::::::::::::::::",
"::::::::::::::::::::::::::::",
"::::::::::::::::::::::::::::"
};
