/* XPM */
static char *result[] = {
/* columns rows colors chars-per-pixel */
"28 27 14 1 ",
"  c #D1E403",
". c #D2E503",
"X c #D1E602",
"o c #D2E602",
"O c #D3E602",
"+ c #D2E702",
"@ c #D2E603",
"# c #D3E603",
"$ c #D2E703",
"% c #D3E703",
"& c #D1E504",
"* c #D2E604",
"= c #D2E803",
"- c None",
/* pixels */
"----------------------------",
"----------------------------",
"-------------$--------------",
"------------+@--------------",
"------------+@--------------",
"----- X------------ @-------",
"-----X@@-----------@@-------",
"------XX---*XX$----@--------",
"--------- @@@@@@@-----------",
"--------&@@@--+@@@----------",
"--------@@------X@o---------",
"-------$@@-------@.---------",
"--&+X--O@--------@@--%+X----",
"--@@@--+@--------@@--@@@----",
"-------@@o-------@@---------",
"--------@.------@@X---------",
"--------X@@----%@@----------",
"---------X@@@@@@@-----------",
"----------+@@@@@------------",
"-----&@@-----------@@-------",
"-----X@------------X@-------",
"------------=@--------------",
"------------+@--------------",
"------------#@--------------",
"----------------------------",
"----------------------------",
"----------------------------"
};
