/* XPM */
static char *result[] = {
/* columns rows colors chars-per-pixel */
"27 27 15 1 ",
"  c #CFE504",
". c #D1E403",
"X c #D2E402",
"o c #D2E502",
"O c #D2E503",
"+ c #D1E602",
"@ c #D2E602",
"# c #D2E702",
"$ c #D2E603",
"% c #D3E603",
"& c #D2E703",
"* c #D3E703",
"= c #D1E504",
"- c #D2E604",
"; c None",
/* pixels */
";;;;;;;;;;;;;;;;;;;;;;;;;;;",
";;;;;;;;;;;;;;;;;;;;;;;;;;;",
";;;;;;;;% ;;;&;;;%;;;;;;;;;",
";;;;;;;;$@;;#$;;;$$;;;;;;;;",
";;;;;;;;$@;;#$;;;$$;;;;;;;;",
";;;;;;;;$O;;$$o;$$+;;;;;;;;",
";;;;;;=$$$$$$$$$$$$$;;;;;;;",
";;;;;;$$+%%%%%%%%%$$O;;;;;;",
";;*$$$$$;;;;;;;;;;;$$$$$;;;",
";;;@@@$$;;;;;;;;;;;$$@@$;;;",
";;;;;;$$;;$$;;.$;;;$@;;;;;;",
";;;;;;$$;;++;;;$;;;$@;;;;;;",
";;=##$$$;;;;;;;;;;;$$##+;;;",
";;$$$$$$;;;;;;;;;;;$$$$$;;;",
";;;;;#$$;;;-;;;&;;;$O;;;;;;",
";;;;;;$$;;$$;;$$;;;$@;;;;;;",
";;;;;$$$;;;;;;;;;;;$O;;;;;;",
";;*$$$$$;;;;;;;;;;;$$$$$;;;",
";;;%%+$O;;;;;;;;;;=$@%%;;;;",
";;;;;;+$$$$$$$$$$$$$;;;;;;;",
";;;;;;;$$$@@$$@@@$+;;;;;;;;",
";;;;;;;;$@;;#$;;;$$;;;;;;;;",
";;;;;;;;$@;;#$;;;$$;;;;;;;;",
";;;;;;;;$+;;%$;;;$X;;;;;;;;",
";;;;;;;;;;;;;;;;;;;;;;;;;;;",
";;;;;;;;;;;;;;;;;;;;;;;;;;;",
";;;;;;;;;;;;;;;;;;;;;;;;;;;"
};
