/* XPM */
static char *result[] = {
/* columns rows colors chars-per-pixel */
"27 27 17 1 ",
"  c #CFE504",
". c #D1E502",
"X c #D1E403",
"o c #D2E402",
"O c #D2E502",
"+ c #D2E503",
"@ c #D1E602",
"# c #D2E602",
"$ c #D3E602",
"% c #D2E702",
"& c #D2E603",
"* c #D3E603",
"= c #D2E703",
"- c #D3E703",
"; c #D1E504",
": c #D2E604",
"> c None",
/* pixels */
">>>>>>>>>>>>>>>>>>>>>>>>>>>",
">>>>>>>>>>>>@%+>>>>>>>>>>>>",
">>>>>>>>>>&&&&&& >>>>>>>>>>",
">>>>>>>>-&&#>>@&&&>>>>>>>>>",
">>>>>>X&&&+>>>>>&&&&>>>>>>>",
">>>>>&&&&&&$>>;&&&&&&+>>>>>",
">>>;&&#>>%&&&&&&@>>&&&+>>>>",
">>#&&.>>>>>@&&#>>>>>=&&+>>>",
">>-&&&&>>>>>>>>>>>>-&&&&>>>",
">>-&&@&&&>>>>>>>>;&&&&&&>>>",
">>-&>>%&&&+>>>>>&&&.>>&&>>>",
">>-&>>>>@&&& >-&&#>>>>&&>>>",
">>-&:>>>>>@&&&&&o>>>>>&&>>>",
">>-&&&>>>>>>&&&>>>>>X&&&>>>",
">>-&&&&+>>>>%&>>>>>&&&&&>>>",
">>-&>&&&+>>>%&>>>*&&#>&&>>>",
">>-&>>>&&>>>%&>>>&&o>>&&>>>",
">>-&>>>%&>>>%&>>>&&>>>&&>>>",
">>&&.>>%&>>>%&>>>&&>>X&&>>>",
">>>&&&+&&>>>%&>>>&&#&&&o>>>",
">>>>@&&&&>>>%&>>>&&&&#>>>>>",
">>>>>>@&&&>>%&>>=&&&O>>>>>>",
">>>>>>>>&&&+&&&&&&&>>>>>>>>",
">>>>>>>>>%&&&&&&@>>>>>>>>>>",
">>>>>>>>>>>@&&#>>>>>>>>>>>>",
">>>>>>>>>>>>>>>>>>>>>>>>>>>",
">>>>>>>>>>>>>>>>>>>>>>>>>>>"
};
