/* XPM */
static char *result[] = {
/* columns rows colors chars-per-pixel */
"27 27 11 1 ",
"  c #D2E601",
". c #D2E402",
"X c #D2E502",
"o c #D2E503",
"O c #D1E602",
"+ c #D2E602",
"@ c #D2E603",
"# c #D3E603",
"$ c #D2E703",
"% c #D1E504",
"& c None",
/* pixels */
"&&&&&&&&&&&&&&&&&&&&&&&&&&&",
"&&&&&&&&&&&&&&&&&&&&&&&&&&&",
"&&&&&&%#o&&&&&&&&&&&&&&&&&&",
"&&&&&@@@@@&&&&&&&&&&&&&&&&&",
"&&&&&@++O@@&&&&&&&&&&&&&&&&",
"&&&&$@@&&@@&&&&&&&&&&&&&&&&",
"&&&&&@o&@@O&&&&&&&&&&&&&&&&",
"&&&&&O@@@@&&&&&&%@@@@&&&&&&",
"&&&&&&@@O&&&&&&&@@+@@&&&&&&",
"&&&&&&&@@&&&&&&+@@&&@+&&&&&",
"&&&&&&&@@&&&&&&+@@&&@O&&&&&",
"&&&&&&&@@&&&&&&&@@@@@.&&&&&",
"&&&&&&&@@&&&&&&&&@@@ &&&&&&",
"&&&&&&&@@&&&&&&&&@@X&&&&&&&",
"&&&&&&&@@&$$$$$$@@@&&&&&&&&",
"&&&&&&&@@@@@@@@@@+&&&&&&&&&",
"&&&&&&&@@+ooooo+&&&&&&&&&&&",
"&&&&&&&@@&&&&&&&&&&&&&&&&&&",
"&&&&&&@@@@&&&&&&&&&&&&&&&&&",
"&&&&&@@+@@@&&&&&&&&&&&&&&&&",
"&&&&+@@&&@o&&&&&&&&&&&&&&&&",
"&&&&+@@&&@o&&&&&&&&&&&&&&&&",
"&&&&&@@@@@X&&&&&&&&&&&&&&&&",
"&&&&&&@@@@&&&&&&&&&&&&&&&&&",
"&&&&&&&&&&&&&&&&&&&&&&&&&&&",
"&&&&&&&&&&&&&&&&&&&&&&&&&&&",
"&&&&&&&&&&&&&&&&&&&&&&&&&&&"
};
