/* XPM */
static char *result[] = {
/* columns rows colors chars-per-pixel */
"28 27 15 1 ",
"  c #D1E502",
". c #D2E402",
"X c #D2E502",
"o c #D2E503",
"O c #D1E602",
"+ c #D2E602",
"@ c #D3E602",
"# c #D2E702",
"$ c #D2E603",
"% c #D3E603",
"& c #D2E703",
"* c #D3E703",
"= c #D1E504",
"- c #D2E604",
"; c None",
/* pixels */
";;;;;;;;;;;;;;;;;;;;;;;;;;;;",
";;;;;;;;;;;;;;;;;;;;;;;;;;;;",
";;;;;;;;;;;;;;;;;;;;;;;;;;;;",
";;;;;=%&&&&&&&&%;;;;;;;;;;;;",
";;;;$$$$$$$$$$$$$;;;;;;;;;;;",
";;;+$++&$o;;;;$$$$;;;;;;;;;;",
";;;*$;;;$+;;;;*$$$$;;;;;;;;;",
";;;*$;;;$+;;;;@$#O$$;;;;;;;;",
";;;*$;;;$$$$$$$$;;O$$;;;;;;;",
";;;*$;;;O+++++++;;;O$$;;;;;;",
";;;*$;;;;;;;;;;;;;;;O$$;;;;;",
";;;*$;;;;;;;;;;;;;;;;$$;;;;;",
";;;*$;;;;;;;;;;;;;;;;$$;;;;;",
";;;*$;;;;;;;;;;;;;;;;$$;;;;;",
";;;*$;;;;;&&&&&&-;;;;$$;;;;;",
";;;*$;;;=$$$$$$$$$;;;$$;;;;;",
";;;*$;;;$$X;;;;;$$;;;$$;;;;;",
";;;*$;;;$o;;;;;;+$$;;$$;;;;;",
";;;*$;;;$+;;;;;;;$$;;$$;;;;;",
";;;*$;;;$+;;;;;;;$$;;$$;;;;;",
";;;&$ ;;$+;;;;;;-$O;;$$;;;;;",
";;;;$$$$$$$$$$$$$$$$$$X;;;;;",
";;;;;O$$$$$$$$$$$$$$$.;;;;;;",
";;;;;;;;;;;;;;;;;;;;;;;;;;;;",
";;;;;;;;;;;;;;;;;;;;;;;;;;;;",
";;;;;;;;;;;;;;;;;;;;;;;;;;;;",
";;;;;;;;;;;;;;;;;;;;;;;;;;;;"
};
