/* XPM */
static char *result[] = {
/* columns rows colors chars-per-pixel */
"27 28 13 1 ",
"  c #D1E403",
". c #D2E402",
"X c #D2E502",
"o c #D2E503",
"O c #D1E602",
"+ c #D2E602",
"@ c #D2E702",
"# c #D2E603",
"$ c #D3E603",
"% c #D2E703",
"& c #D3E703",
"* c #D2E604",
"= c None",
/* pixels */
"===========================",
"===========*@@%============",
"==========######*==========",
"=========##O==@##==========",
"=========#O====+#o=========",
"========&#======##=========",
"========&#======##=========",
"========&#======##=========",
"========&#======##=========",
"========&#======##=========",
"========&#======##=========",
"========&#======##=========",
"========&#======##=========",
"========&#======##=========",
"========##======##=========",
"=======%#O======$#o========",
"=======##========##========",
"=======#O== ###==+##=======",
"=======#o==####===#+=======",
"=======#o==O###===##=======",
"=======#o===$+===&#X=======",
"=======$#*=======##========",
"========##o==== ##.========",
"=========###@@####=========",
"==========@####+===========",
"===========================",
"===========================",
"==========================="
};
